<svg width="58" height="45" viewBox="0 0 58 45" fill="none" xmlns="http://www.w3.org/2000/svg">
    <path d="M28.4568 45C20.1038 44.8204 11.9402 42.2787 4.87938 36.5685C3.38013 35.3542 2.11452 33.8436 0.739174 32.473C-0.124623 31.6108 -0.200737 30.7487 0.351527 29.5991C4.01559 21.9183 7.60884 14.2017 11.2251 6.49583C12.034 4.76965 12.8359 3.03986 13.6554 1.31726C14.3139 -0.0694349 14.7546 -0.218514 16.153 0.33832C21.5659 2.49381 27.1664 3.17279 32.9369 2.52076C36.1018 2.16151 39.1923 1.51664 42.1307 0.210772C43.1732 -0.252658 43.7113 0.031158 44.2848 1.23105C45.8838 4.59241 47.4722 7.95736 49.0499 11.3259C51.9174 17.4331 54.7513 23.5403 57.6666 29.6278C58.1976 30.7235 58.0967 31.5031 57.3462 32.4048C53.8946 36.5595 49.6199 39.5466 44.7362 41.6842C39.7322 43.8648 34.491 44.9282 28.4568 45ZM15.8043 3.29672L2.9677 30.6463C16.2893 46.3831 42.8759 45.4383 55.031 30.6121L42.1908 3.29672C33.3228 6.29105 24.6193 6.3144 15.8043 3.29672Z" fill="#E91E63"/>
    <path d="M39.2579 30.8493C39.3304 31.7654 39.5552 32.7012 39.4437 33.594C39.1092 36.2883 37.4453 37.9193 35.0185 38.803C32.682 39.6563 30.2995 39.4695 27.9382 38.8947C23.0475 37.7038 19.3746 34.6933 16.4805 30.6643C14.4272 27.8029 14.1298 24.6559 15.6061 21.3364C14.1387 19.6498 13.5439 17.6631 13.6944 15.4088C13.9865 11.0476 17.3018 8.14665 21.6013 8.51308C23.2298 8.65139 24.7769 9.0304 26.1664 9.92852C28.0373 11.141 29.0622 12.8744 29.2003 15.1376C29.2339 15.6909 29.2534 16.2459 29.2711 16.6195C30.3331 17.1296 31.3492 17.4512 32.1616 18.0565C33.0785 18.7427 33.1599 19.8905 33.0113 21.0526C35.4699 22.4142 38.0082 22.9764 40.743 22.5291C41.0538 22.4478 41.3687 22.3837 41.6864 22.3369C43.6229 22.2381 44.9079 24.0308 43.9397 25.7103C43.0175 27.3089 41.8156 28.7513 40.6421 30.1847C40.3429 30.5619 39.6968 30.6517 39.2579 30.8493ZM23.2245 25.36C24.3503 25.457 25.3097 25.5037 26.2566 25.633C27.1417 25.7552 27.7435 25.4354 28.2604 24.7349C28.9365 23.8152 29.9933 21.2556 30.1243 20.027C28.7825 19.6498 28.7401 19.6677 28.2692 20.8407C27.9577 21.6167 27.6798 22.407 27.3417 23.1758C26.9877 23.9787 26.4974 24.2876 25.7239 24.1709C24.7698 24.029 23.8192 23.8565 22.8793 23.632C22.0244 23.4344 21.5925 22.786 21.7058 22.0154C21.8191 21.2448 22.4138 20.8281 23.3378 20.8928C23.9201 20.9341 24.499 21.0418 25.0849 21.1209C25.9929 19.3246 26.5558 17.5392 26.4637 15.5651C26.3894 13.9701 25.6707 12.8312 24.283 12.102C23.1683 11.5364 21.9318 11.2628 20.6862 11.3062C19.0206 11.3296 17.739 12.0445 17.0275 13.5875C16.2256 15.3316 16.1584 17.1009 17.2045 18.7966C17.3669 19.0229 17.5706 19.2156 17.8045 19.3641C19.3675 20.4886 19.4135 20.6664 18.3355 22.3477C17.4788 23.6823 17.2098 25.1552 17.6629 26.63C18.0124 27.7364 18.5439 28.7749 19.2347 29.7015C20.6607 31.5998 22.4247 33.2101 24.4352 34.449C26.7536 35.9214 29.4574 36.6461 32.1899 36.5272C33.7494 36.468 35.1814 35.9884 36.1708 34.6412C36.4274 34.3075 36.6003 33.9156 36.6746 33.4991C36.7489 33.0827 36.7224 32.6541 36.5974 32.2504C36.3744 31.4977 36.1372 30.7847 35.169 30.5817C34.4787 30.438 34.1069 29.6836 34.2149 29.08C34.2674 28.7563 34.4301 28.4616 34.6745 28.2469C34.919 28.0323 35.2299 27.9114 35.5531 27.9053C36.424 27.8532 37.3002 27.8945 38.171 27.8442C38.5144 27.8245 38.9587 27.7652 39.164 27.5424C39.711 26.9425 40.1535 26.2437 40.7677 25.4049C37.5462 25.7354 34.7176 25.0816 32.0306 23.7739C31.5704 24.5984 31.2819 25.4337 30.7349 26.0174C29.8499 26.9605 29.9119 27.9017 30.3455 28.9579C30.434 29.1716 30.5225 29.3872 30.5951 29.6099C30.8748 30.4847 30.6323 31.2157 29.972 31.5121C29.2304 31.8426 28.4374 31.5337 28.048 30.6823C27.7417 30.0141 27.5293 29.3009 27.2514 28.5465L23.0333 28.0849C23.0988 27.158 23.1625 26.3767 23.2245 25.36Z" fill="#E91E63"/>
</svg>
