<svg width="22" height="22" viewBox="0 0 22 22" fill="none" xmlns="http://www.w3.org/2000/svg">
<path d="M1.75376 16.0986L1.11619 20.0037L4.86192 19.3661L6.53555 20.0037L9.8828 21.4382L16.4179 20.0037L20.7215 14.9828V9.0853L18.1712 3.50655L13.9473 1.51414L8.60765 0.796875L3.90557 3.50655L0.398926 9.0853L1.75376 16.0986Z" fill="black"/>
<path d="M11.0014 5.41016C10.4946 5.41016 10.085 5.81981 10.085 6.32658V11.8251C10.085 12.3319 10.4946 12.7415 11.0014 12.7415C11.5081 12.7415 11.9178 12.331 11.9178 11.8251V6.32658C11.9178 5.81981 11.5082 5.41016 11.0014 5.41016Z" fill="#F9F9F9"/>
<path d="M11.8436 15.2332C11.7977 15.1141 11.7336 15.0133 11.6511 14.9308C11.6053 14.8942 11.5594 14.8483 11.5045 14.8209C11.4587 14.7842 11.4037 14.7576 11.3487 14.7384C11.2937 14.71 11.2387 14.6926 11.1746 14.6834C10.8822 14.6192 10.5606 14.7209 10.3507 14.9308C10.2682 15.0133 10.2041 15.1141 10.1583 15.2332C10.1125 15.3432 10.085 15.4623 10.085 15.5815C10.085 15.7006 10.1125 15.8197 10.1583 15.9297C10.2041 16.0397 10.2682 16.1405 10.3507 16.2321C10.4424 16.3146 10.5432 16.3787 10.6531 16.4246C10.7631 16.4704 10.8822 16.4979 11.0014 16.4979C11.1205 16.4979 11.2387 16.4704 11.3487 16.4246C11.4586 16.3788 11.5585 16.3146 11.6511 16.2321C11.7336 16.1405 11.7977 16.0397 11.8436 15.9297C11.8894 15.8198 11.9169 15.7006 11.9169 15.5815C11.9169 15.4623 11.8894 15.3432 11.8436 15.2332Z" fill="#F9F9F9"/>
<path d="M17.0896 1.84061C14.7774 0.303773 12.0016 -0.299239 9.26427 0.139721C9.21662 0.140623 9.16896 0.145221 9.12131 0.153471C6.22725 0.655637 3.7016 2.25482 2.00896 4.65582C0.318174 7.05777 -0.337087 9.97379 0.16422 12.8688C0.24762 13.3463 0.363978 13.8274 0.510627 14.2947C1.11639 16.2623 0.966989 18.371 0.0909164 20.2322C-0.0621354 20.5548 -0.011734 20.9379 0.218316 21.2119C0.448324 21.4859 0.813078 21.5995 1.16129 21.506L5.26958 20.3844C7.00897 21.4492 8.97282 22 10.978 22C11.7065 22 12.4405 21.9276 13.171 21.78C16.0513 21.1999 18.5329 19.5339 20.1587 17.088C23.5155 12.0385 22.139 5.19928 17.0896 1.84061ZM18.6328 16.0735C17.2774 18.1126 15.2091 19.5009 12.8099 19.9839C10.4125 20.4669 7.96754 19.9867 5.92759 18.6304C5.77549 18.5296 5.59859 18.4773 5.41988 18.4773C5.33923 18.4773 5.25768 18.4883 5.17793 18.5103L2.38102 19.2737C2.85298 17.472 2.81813 15.564 2.26097 13.7504C2.13726 13.3555 2.03921 12.9531 1.97046 12.5554C1.55256 10.1434 2.09876 7.71303 3.5082 5.71154C4.89383 3.744 6.95118 2.42342 9.31282 1.98262C9.35682 1.98077 9.39987 1.97621 9.44387 1.96887C11.7615 1.5684 14.1167 2.06602 16.076 3.36825C20.2842 6.1661 21.4306 11.8653 18.6328 16.0735Z" fill="black"/>
</svg>
