<svg width="81" height="75" viewBox="0 0 81 75" fill="none" xmlns="http://www.w3.org/2000/svg">
<path d="M79.0493 34.0742L66.8964 21.9213V7.88259C66.8964 5.3442 64.8394 3.28704 62.2973 3.28704C59.761 3.28704 57.704 5.3442 57.704 7.88259V12.729L48.6552 3.67989C44.1814 -0.79151 36.4029 -0.783579 31.9392 3.68798L1.55238 34.0742C-0.24142 35.8716 -0.24142 38.7798 1.55238 40.5744C3.347 42.3713 6.26092 42.3713 8.05488 40.5744L38.4388 10.1874C39.4286 9.20277 41.1732 9.20277 42.1579 10.1845L72.547 40.5744C73.4481 41.4729 74.6229 41.9199 75.7974 41.9199C76.9744 41.9199 78.1511 41.4725 79.0495 40.5744C80.8439 38.78 80.8439 35.8717 79.0493 34.0742Z" fill="#368EDB"/>
<path d="M41.897 18.9109C41.0142 18.0286 39.5847 18.0286 38.7045 18.9109L11.9762 45.6313C11.5542 46.0531 11.3149 46.6291 11.3149 47.2301V66.7189C11.3149 71.2922 15.023 75 19.596 75H32.8293V54.5061H47.7694V75H61.0027C65.5756 75 69.2837 71.2922 69.2837 66.7191V47.2301C69.2837 46.6291 69.0465 46.0531 68.6224 45.6313L41.897 18.9109Z" fill="#368EDB"/>
</svg>
