<svg width="76" height="77" viewBox="0 0 76 77" fill="none" xmlns="http://www.w3.org/2000/svg">
<path d="M8.18391 44.8131C8.18391 45.5622 8.79107 46.1693 9.54016 46.1693C10.2893 46.1693 10.8964 46.7765 10.8964 47.5256V69.2264C10.8964 69.9755 11.5036 70.5826 12.2527 70.5826C13.0018 70.5826 13.6089 69.9753 13.6089 69.2264V47.5257C13.6089 46.7767 14.2161 46.1695 14.9652 46.1695C15.7143 46.1695 16.3214 45.5622 16.3214 44.8132V42.1006H8.18359V44.8131H8.18391Z" fill="white"/>
<path d="M38.0224 38.0316C29.7827 38.0316 23.103 44.7113 23.103 52.951C23.103 61.1907 29.7827 67.8704 38.0224 67.8704C46.2621 67.8704 52.9418 61.1907 52.9418 52.951C52.932 44.7153 46.258 38.0413 38.0224 38.0316ZM38.0224 65.1577C31.2809 65.1577 25.8157 59.6925 25.8157 52.951C25.8157 46.2095 31.2809 40.7443 38.0224 40.7443C44.7639 40.7443 50.2292 46.2095 50.2292 52.951C50.2217 59.6895 44.7609 65.1503 38.0224 65.1577Z" fill="white"/>
<path d="M21.7467 5.48027C21.7467 4.73118 21.1394 4.12402 20.3905 4.12402H14.9651C14.216 4.12402 13.6089 4.73134 13.6089 5.48027V12.8043L21.7467 7.37915V5.48027Z" fill="white"/>
<path d="M38.0224 62.4452C43.2658 62.4452 47.5165 58.1945 47.5165 52.9511C47.5165 47.7077 43.2658 43.457 38.0224 43.457C32.779 43.457 28.5283 47.7077 28.5283 52.9511C28.5283 58.1945 32.779 62.4452 38.0224 62.4452Z" fill="white"/>
<path d="M62.4357 69.2266C62.4357 69.9757 63.0429 70.5828 63.792 70.5828C64.541 70.5828 65.1482 69.9755 65.1482 69.2266V58.3761H62.4355V69.2266H62.4357Z" fill="white"/>
<path d="M75.9717 25.5537C75.9027 25.2006 75.6951 24.89 75.3952 24.6912L38.775 0.277696C38.3203 -0.0279494 37.7257 -0.0279494 37.2709 0.277696L0.650726 24.6912C0.0275146 25.107 -0.140646 25.9492 0.274987 26.5724C0.690779 27.1956 1.53301 27.3638 2.15622 26.9481L37.2695 3.54236C37.7253 3.23831 38.3192 3.23831 38.775 3.54236L73.8897 26.9535C74.5164 27.3511 75.345 27.1856 75.7709 26.5778C75.973 26.2772 76.0453 25.9082 75.9717 25.5537Z" fill="white"/>
<path d="M72.3842 29.2157L38.0223 6.3009L3.65887 29.2157C3.37801 29.3982 3.07555 29.5449 2.7583 29.6525V74.6519C2.7583 75.401 3.36562 76.0082 4.11455 76.0082H71.9298C72.6789 76.0082 73.286 75.401 73.286 74.6519V29.651C72.9688 29.5433 72.6659 29.3971 72.3842 29.2157ZM19.0339 44.8131C19.0319 46.537 17.9458 48.0732 16.3213 48.6502V69.2266C16.3213 71.4737 14.4995 73.2955 12.2524 73.2955C10.0053 73.2955 8.18346 71.4737 8.18346 69.2266V48.6502C6.55908 48.0732 5.47303 46.537 5.4708 44.8131V32.6064C5.4708 31.8573 6.07812 31.2502 6.82705 31.2502C7.57599 31.2502 8.1833 31.8575 8.1833 32.6064V39.388H10.896V32.6064C10.896 31.8573 11.5031 31.2502 12.2522 31.2502C13.0013 31.2502 13.6085 31.8575 13.6085 32.6064V39.388H16.3211V32.6064C16.3211 31.8573 16.9284 31.2502 17.6774 31.2502C18.4265 31.2502 19.0336 31.8575 19.0336 32.6064V44.8131H19.0339ZM38.0223 70.5829C28.2844 70.5829 20.3904 62.6887 20.3904 52.951C20.3904 43.2132 28.2844 35.3191 38.0223 35.3191C47.7601 35.3191 55.6542 43.2132 55.6542 52.951C55.6429 62.6843 47.7554 70.5717 38.0223 70.5829ZM70.5735 54.3072C70.5664 56.0254 69.4808 57.5539 67.8609 58.1266V69.2266C67.8609 71.4737 66.0391 73.2955 63.792 73.2955C61.5449 73.2955 59.7231 71.4737 59.7231 69.2266V32.6064C59.7231 31.1082 60.9375 29.8938 62.4357 29.8938C66.9282 29.8982 70.5691 33.5391 70.5735 38.0316V54.3072Z" fill="white"/>
<path d="M62.436 32.6064V55.6637H66.5049C67.254 55.6637 67.8612 55.0563 67.8612 54.3074V38.0318C67.8612 35.0354 65.4322 32.6064 62.436 32.6064Z" fill="white"/>
</svg>
