<svg width="25" height="25" viewBox="0 0 25 25" fill="none" xmlns="http://www.w3.org/2000/svg">
<path d="M12.5 0C10.0277 0 7.61099 0.733112 5.55538 2.10663C3.49976 3.48015 1.89761 5.43238 0.951511 7.71646C0.00541617 10.0005 -0.242126 12.5139 0.24019 14.9386C0.722505 17.3634 1.91301 19.5907 3.66117 21.3388C5.40933 23.087 7.63661 24.2775 10.0614 24.7598C12.4861 25.2421 14.9995 24.9946 17.2835 24.0485C19.5676 23.1024 21.5199 21.5002 22.8934 19.4446C24.2669 17.389 25 14.9723 25 12.5C24.996 9.18601 23.6778 6.00889 21.3345 3.66555C18.9911 1.3222 15.814 0.00396964 12.5 0ZM11.6667 5.83333C11.6667 5.61232 11.7545 5.40036 11.9107 5.24408C12.067 5.0878 12.279 5 12.5 5C12.721 5 12.933 5.0878 13.0893 5.24408C13.2455 5.40036 13.3333 5.61232 13.3333 5.83333V11.6667C13.3333 11.8877 13.2455 12.0996 13.0893 12.2559C12.933 12.4122 12.721 12.5 12.5 12.5C12.279 12.5 12.067 12.4122 11.9107 12.2559C11.7545 12.0996 11.6667 11.8877 11.6667 11.6667V5.83333ZM12.5 20C10.5118 19.9969 8.60597 19.2057 7.20011 17.7999C5.79426 16.394 5.00309 14.4882 5 12.5C4.99636 11.3753 5.24796 10.2645 5.73585 9.25121C6.22375 8.23789 6.93521 7.34849 7.81667 6.65C7.90059 6.57079 8.00004 6.50987 8.10873 6.4711C8.21741 6.43233 8.33297 6.41656 8.44807 6.42478C8.56317 6.43301 8.67531 6.46504 8.77738 6.51887C8.87946 6.57269 8.96924 6.64713 9.04104 6.73746C9.11285 6.8278 9.16511 6.93206 9.19451 7.04364C9.22392 7.15523 9.22983 7.27171 9.21187 7.38569C9.19391 7.49968 9.15247 7.6087 9.09018 7.70584C9.02789 7.80298 8.9461 7.88612 8.85 7.95C7.90762 8.70593 7.22318 9.73581 6.89122 10.8974C6.55925 12.059 6.59613 13.295 6.99677 14.4348C7.3974 15.5745 8.14203 16.5617 9.12781 17.2601C10.1136 17.9585 11.2919 18.3336 12.5 18.3336C13.7081 18.3336 14.8864 17.9585 15.8722 17.2601C16.858 16.5617 17.6026 15.5745 18.0032 14.4348C18.4039 13.295 18.4408 12.059 18.1088 10.8974C17.7768 9.73581 17.0924 8.70593 16.15 7.95C15.9982 7.80669 15.9057 7.61162 15.8908 7.40338C15.8759 7.19513 15.9398 6.98889 16.0697 6.82546C16.1996 6.66203 16.3861 6.55331 16.5923 6.52082C16.7986 6.48833 17.0095 6.53443 17.1833 6.65C18.0648 7.34849 18.7763 8.23789 19.2642 9.25121C19.752 10.2645 20.0036 11.3753 20 12.5C19.9969 14.4882 19.2057 16.394 17.7999 17.7999C16.394 19.2057 14.4882 19.9969 12.5 20Z" fill="black"/>
</svg>
