<svg width="66" height="77" viewBox="0 0 66 77" fill="none" xmlns="http://www.w3.org/2000/svg">
<path d="M57.6507 49.4561C61.1642 45.8646 63.6932 41.4387 64.9966 36.6004C66.2999 31.7621 66.3341 26.6727 65.096 21.8175C64.7224 20.195 59.1315 -1.80584 31.0798 0.119227C30.8911 0.102176 9.17238 1.64597 5.46377 19.9064C5.44994 20.0575 4.16291 35.6643 0.49557 40.7657C0.256166 41.103 0.0979648 41.4905 0.0331784 41.8982C-0.0316079 42.3059 -0.00124797 42.7229 0.121916 43.1171C0.24661 43.5269 0.463377 43.9032 0.755855 44.2177C1.04833 44.5321 1.40888 44.7764 1.81028 44.9321L6.19724 46.6097V46.8985L5.33922 47.5172C5.05791 47.716 4.83264 47.9831 4.68495 48.2931C4.53726 48.6031 4.47211 48.9456 4.49571 49.2878C4.51932 49.6299 4.6309 49.9604 4.81978 50.2474C5.00865 50.5345 5.26851 50.7686 5.57449 50.9274C5.31327 51.1336 5.10726 51.4007 4.97469 51.7049C4.84213 52.0091 4.78709 52.3411 4.81446 52.6715C4.84183 53.0019 4.95076 53.3205 5.1316 53.5991C5.31244 53.8777 5.55963 54.1077 5.85127 54.2687L7.17981 54.97C6.19404 56.1694 5.72652 57.7079 5.87956 59.2489C6.0326 60.7899 6.79374 62.2079 7.99642 63.1927C8.28693 63.5091 11.0962 66.2454 18.7769 64.2104C19.1002 64.1359 19.4354 64.1281 19.7618 64.1871C20.0883 64.2462 20.3991 64.3711 20.6752 64.554C20.9514 64.7369 21.1869 64.9739 21.3673 65.2506C21.5478 65.5273 21.6694 65.8378 21.7246 66.1629C22.1675 67.8955 23.1639 72.9282 22.6103 75.3208C22.5635 75.5405 22.5709 75.7683 22.632 75.9846C22.6931 76.2009 22.8059 76.3993 22.961 76.5628C23.116 76.7263 23.3086 76.8501 23.5223 76.9236C23.736 76.997 23.9644 77.0179 24.188 76.9846L58.1489 71.2369C58.3538 71.2021 58.5482 71.1218 58.7174 71.0019C58.8867 70.8819 59.0265 70.7255 59.1263 70.5443C59.2261 70.3631 59.2834 70.1619 59.2939 69.9556C59.3044 69.7493 59.2678 69.5433 59.1868 69.353C52.6133 53.815 57.623 49.4836 57.6507 49.4561ZM49.3058 42.9108C47.1992 42.936 45.1533 42.2107 43.5387 40.8662C41.924 39.5217 40.8475 37.647 40.5041 35.5818C38.8978 35.4078 37.3992 34.6948 36.2556 33.5605C35.1546 32.4801 33.7791 30.1691 35.7712 29.4491C35.9466 29.4029 36.1294 29.3915 36.3092 29.4156C36.489 29.4397 36.6623 29.4988 36.8191 29.5895C36.9759 29.6802 37.1132 29.8007 37.2231 29.9441C37.333 30.0876 37.4133 30.2511 37.4596 30.4254C38.4155 33.0474 42.1916 33.6397 44.2684 31.9104C44.8613 31.452 45.3246 30.8488 45.6132 30.1596C45.9018 29.4705 46.0058 28.7188 45.9152 27.9778C45.8952 27.6163 46.0191 27.2615 46.2602 26.99C46.5013 26.7186 46.8402 26.5522 47.2037 26.5269C47.5671 26.5017 47.926 26.6195 48.2028 26.8549C48.4796 27.0903 48.6521 27.4245 48.683 27.7853C48.8244 29.4805 48.3611 31.1712 47.3744 32.5614C46.3876 33.9515 44.9402 34.9525 43.2855 35.3891C44.389 40.0675 49.3063 41.0429 52.8901 39.4179C57.9818 37.5459 58.4787 32.031 55.7129 28.6103C55.1993 29.6942 54.4169 31.9695 52.8625 32.1443C52.5995 32.1406 52.3429 32.0633 52.1221 31.9213C51.9013 31.7793 51.7252 31.5784 51.614 31.3416C51.5027 31.1048 51.4609 30.8417 51.4933 30.5823C51.5256 30.323 51.6308 30.0779 51.7969 29.8753C55.3397 25.7501 52.4058 20.4287 52.3781 20.3737C50.0947 16.221 44.8082 16.166 44.6559 16.166C44.4179 16.1719 44.1825 16.1152 43.9735 16.0017C43.7645 15.8883 43.5894 15.722 43.4658 15.5197C37.5341 6.44233 22.7755 11.0409 24.4373 21.7214C24.496 22.0775 24.4117 22.4423 24.2025 22.7373C23.9932 23.0323 23.6759 23.2339 23.3186 23.2987C22.9613 23.3635 22.5927 23.2864 22.292 23.084C21.9913 22.8815 21.7827 22.5699 21.7109 22.2162C21.5299 21.046 21.5159 19.8563 21.6694 18.6823C15.4141 20.0573 14.9713 25.0075 14.9575 25.2275C14.6202 27.4439 15.1209 29.7059 16.3628 31.5772C17.6048 33.4485 19.5001 34.7967 21.6832 35.3617C21.6769 34.2479 21.8918 33.1439 22.3158 32.1129C22.7397 31.0819 23.3643 30.1441 24.1536 29.3534C24.943 28.5626 25.8817 27.9345 26.9159 27.5049C27.9501 27.0754 29.0595 26.8528 30.1804 26.8501C31.2007 26.7505 32.1738 27.0689 32.2147 28.2251C32.1804 29.3929 31.1906 29.6977 30.1804 29.6001C28.6698 29.6137 27.2258 30.2195 26.1625 31.2856C25.0992 32.3517 24.5027 33.792 24.5027 35.2929C24.5027 36.7938 25.0993 38.2341 26.1626 39.3002C27.2259 40.3663 28.67 40.972 30.1805 40.9856H34.0967C35.4564 40.988 36.7595 41.5267 37.7196 42.4832C38.6798 43.4398 39.2184 44.736 39.2171 46.087V53.4023C39.212 53.7636 39.0639 54.1084 38.8049 54.3621C38.5459 54.6158 38.1969 54.758 37.8332 54.758C37.4695 54.758 37.1204 54.6158 36.8615 54.3621C36.6025 54.1084 36.4545 53.7636 36.4493 53.4022V46.0872C36.4504 45.4656 36.2033 44.869 35.7623 44.4282C35.3212 43.9874 34.7222 43.7384 34.0967 43.7358H30.1802C28.4702 43.7321 26.8009 43.2173 25.3892 42.2585C23.9775 41.2997 22.8887 39.9411 22.2643 38.3594C18.0158 37.5344 11.4422 33.973 12.1895 25.0214C12.1895 24.9801 12.7708 17.0736 22.375 15.7811C25.7197 6.44671 39.9042 5.25882 45.3893 13.4575C48.3937 13.5641 51.2331 14.8499 53.285 17.033C55.3369 19.2162 56.434 22.1186 56.3359 25.1041C63.0114 31.2215 61.1166 42.2506 49.3058 42.9108ZM37.4734 18.3799C36.8428 17.9144 36.0526 17.7154 35.275 17.8261C34.4974 17.9369 33.7953 18.3484 33.3217 18.9712C33.2361 19.167 33.1071 19.3411 32.9441 19.4803C32.7812 19.6195 32.5886 19.7202 32.3809 19.7748C32.1732 19.8295 31.9557 19.8367 31.7448 19.7959C31.5338 19.7551 31.3349 19.6673 31.163 19.5392C30.9911 19.4111 30.8507 19.246 30.7522 19.0562C30.6537 18.8664 30.5998 18.657 30.5944 18.4435C30.5891 18.2301 30.6325 18.0182 30.7214 17.8238C30.8102 17.6294 30.9423 17.4576 31.1076 17.3211C35.8157 11.4288 44.6464 18.0056 40.2826 24.169C40.1964 24.3636 40.0671 24.5363 39.9042 24.6743C39.7414 24.8123 39.5493 24.912 39.3423 24.9659C39.1353 25.0198 38.9187 25.0265 38.7087 24.9856C38.4987 24.9447 38.3007 24.8572 38.1295 24.7296C37.9583 24.602 37.8183 24.4376 37.72 24.2487C37.6217 24.0599 37.5676 23.8514 37.5617 23.6388C37.5559 23.4263 37.5984 23.2151 37.6861 23.0212C37.7739 22.8273 37.9046 22.6555 38.0685 22.5188C38.5413 21.8913 38.7442 21.103 38.6326 20.327C38.5211 19.5511 38.1041 18.8508 37.4734 18.3799Z" fill="white"/>
</svg>
