<svg width="70" height="70" viewBox="0 0 70 70" fill="none" xmlns="http://www.w3.org/2000/svg">
<path d="M33.5123 54.7491C33.326 54.966 33.0348 55.0613 32.756 54.9962C29.6435 54.2706 25.6253 51.6776 22.0075 48.0597C18.3895 44.4419 15.7956 40.4228 15.0688 37.309C15.0038 37.0305 15.099 36.7387 15.3159 36.5524C16.2954 35.7107 17.5055 34.6679 18.654 33.6746L6.64843 16.1074C5.00855 17.685 3.12459 19.5993 2.8076 20.002C2.5161 20.3761 2.36198 20.4921 2.21277 20.7847C-0.684158 26.5127 1.82779 37.9979 4.53714 44.3229C7.92191 52.2343 17.8306 62.1431 25.7419 65.5278C31.6994 68.0811 43.5041 70.7755 49.2824 67.8513C49.5784 67.7033 49.6918 67.5513 50.0685 67.2577C50.4678 66.9436 52.3554 65.0856 53.9248 63.4546L36.4832 51.3032C35.4624 52.4835 34.3805 53.7387 33.5123 54.7491Z" fill="white"/>
<path d="M55.1777 54.5948C52.9172 52.4622 48.1085 49.2913 46.0938 47.8924C44.9798 47.1193 43.6842 46.6934 42.4453 46.6934C41.4308 46.6934 40.5073 46.9893 39.7721 47.5493C39.5783 47.7455 38.6514 48.8034 37.4941 50.1366L54.9904 62.3261C55.5552 61.7144 55.9787 61.225 56.1127 61.0035C57.1026 59.3756 57.1163 57.1341 56.1461 55.6723C55.8236 55.1857 55.2225 54.6432 55.1777 54.5948Z" fill="white"/>
<path d="M43.1602 26.7506V30.6921H46.3344V26.7506C46.3344 26.3267 46.6779 25.983 47.1019 25.983H51.0434V22.809H47.1019C46.6779 22.809 46.3344 22.4653 46.3344 22.0415V18.1H43.1602V22.0415C43.1602 22.4653 42.8167 22.809 42.3927 22.809H38.4512V25.983H42.3927C42.8167 25.983 43.1602 26.3267 43.1602 26.7506Z" fill="white"/>
<path d="M22.516 30.2926C23.9516 28.4101 23.379 25.7619 22.1695 23.9648L21.9268 23.6039C20.7797 21.8967 18.2306 18.1034 16.23 15.7401C16.22 15.7285 16.2099 15.7173 16.2007 15.7052C15.5031 14.8838 14.8733 14.238 14.3958 13.9213C13.6978 13.4582 12.7854 13.2032 11.8261 13.2032C10.8405 13.2032 9.8591 13.469 9.06257 13.9516C8.84551 14.0836 8.37241 14.4925 7.77881 15.0401L19.8221 32.663C21.2051 31.4629 22.3146 30.4917 22.516 30.2926Z" fill="white"/>
<path d="M15.4998 7.06327C17.1926 7.06327 18.5699 5.68603 18.5699 3.99318C18.5699 2.30034 17.1926 0.923096 15.4998 0.923096C13.8069 0.923096 12.4297 2.30034 12.4297 3.99318C12.4297 5.68603 13.8069 7.06327 15.4998 7.06327Z" fill="white"/>
<path d="M7.44078 63.8599C6.38267 63.8599 5.52197 64.7206 5.52197 65.7787C5.52197 66.8368 6.38267 67.6975 7.44078 67.6975C8.49888 67.6975 9.35958 66.8368 9.35958 65.7787C9.35958 64.7206 8.49888 63.8599 7.44078 63.8599Z" fill="white"/>
<path d="M23.2009 22.7479L23.4428 23.1077C24.9666 25.3719 25.6397 28.7706 23.7082 31.2602C23.6494 31.336 23.4718 31.5653 16.6797 37.4045C17.4807 40.1895 19.8443 43.7258 23.0929 46.9744C26.3412 50.2227 29.8768 52.5856 32.6604 53.3856C38.4997 46.5937 38.7286 46.4161 38.8049 46.357C41.1464 44.541 44.4957 44.9147 46.9692 46.6313C47.3116 46.8691 47.7255 47.1515 48.188 47.4671C51.1007 49.4556 54.0141 51.4871 55.8495 53.1296C64.587 48.1433 69.994 38.895 69.994 28.856C69.994 13.4537 57.4633 0.923096 42.061 0.923096C31.9833 0.923096 22.7139 6.36406 17.739 15.1542C19.4024 17.1781 21.3648 20.015 23.2009 22.7479ZM44.7473 11.0641C52.3202 11.0641 58.4812 17.2251 58.4812 24.7979C58.4812 32.3708 52.3202 38.5316 44.7473 38.5316C37.1747 38.5316 31.0138 32.3708 31.0138 24.7979C31.0138 17.2251 37.1747 11.0641 44.7473 11.0641Z" fill="white"/>
<path d="M44.7474 36.9966C51.4739 36.9966 56.9462 31.5244 56.9462 24.798C56.9462 18.0715 51.4739 12.5991 44.7474 12.5991C38.0211 12.5991 32.5488 18.0714 32.5488 24.798C32.5488 31.5244 38.0211 36.9966 44.7474 36.9966ZM36.9165 22.0415C36.9165 21.6177 37.26 21.274 37.684 21.274H41.6255V17.3324C41.6255 16.9086 41.9691 16.5649 42.3931 16.5649H47.1023C47.5262 16.5649 47.8698 16.9086 47.8698 17.3324V21.274H51.8113C52.2353 21.274 52.5788 21.6177 52.5788 22.0415V26.7505C52.5788 27.1744 52.2353 27.518 51.8113 27.518H47.8698V31.4596C47.8698 31.8834 47.5262 32.2271 47.1023 32.2271H42.3931C41.9691 32.2271 41.6255 31.8834 41.6255 31.4596V27.518H37.684C37.26 27.518 36.9165 27.1744 36.9165 26.7505V22.0415Z" fill="white"/>
<path d="M4.37052 6.29573C5.00636 6.29573 5.5218 5.78028 5.5218 5.14445C5.5218 4.50861 5.00636 3.99316 4.37052 3.99316C3.73468 3.99316 3.21924 4.50861 3.21924 5.14445C3.21924 5.78028 3.73468 6.29573 4.37052 6.29573Z" fill="white"/>
<path d="M67.3075 56.1846C67.9434 56.1846 68.4588 55.6692 68.4588 55.0334C68.4588 54.3975 67.9434 53.8821 67.3075 53.8821C66.6717 53.8821 66.1562 54.3975 66.1562 55.0334C66.1562 55.6692 66.6717 56.1846 67.3075 56.1846Z" fill="white"/>
<path d="M66.54 3.99324C67.1758 3.99324 67.6912 3.47779 67.6912 2.84196C67.6912 2.20612 67.1758 1.69067 66.54 1.69067C65.9041 1.69067 65.3887 2.20612 65.3887 2.84196C65.3887 3.47779 65.9041 3.99324 66.54 3.99324Z" fill="white"/>
<path d="M61.1674 70.0001C61.8032 70.0001 62.3187 69.4846 62.3187 68.8488C62.3187 68.213 61.8032 67.6975 61.1674 67.6975C60.5316 67.6975 60.0161 68.213 60.0161 68.8488C60.0161 69.4846 60.5316 70.0001 61.1674 70.0001Z" fill="white"/>
<path d="M3.60343 58.4871C4.23927 58.4871 4.75471 57.9717 4.75471 57.3359C4.75471 56.7 4.23927 56.1846 3.60343 56.1846C2.9676 56.1846 2.45215 56.7 2.45215 57.3359C2.45215 57.9717 2.9676 58.4871 3.60343 58.4871Z" fill="white"/>
</svg>
