<svg width="71" height="71" viewBox="0 0 71 71" fill="none" xmlns="http://www.w3.org/2000/svg">
<path fill-rule="evenodd" clip-rule="evenodd" d="M6.2075 15.4849H52.5004C55.683 15.4849 58.287 17.983 58.287 21.0364V54.3455C58.287 57.3988 55.683 59.897 52.5004 59.897H11.9941L0.420898 71L0.449831 21.0364C0.449831 17.983 3.02487 15.4849 6.2075 15.4849ZM43.8204 34.9152H14.8874C13.2961 34.9152 11.9941 36.1643 11.9941 37.6909C11.9941 39.2176 13.2961 40.4667 14.8874 40.4667H43.8204C45.4118 40.4667 46.7137 39.2176 46.7137 37.6909C46.7137 36.1643 45.4118 34.9152 43.8204 34.9152ZM32.2472 48.794H14.8874C13.2961 48.794 11.9941 47.5449 11.9941 46.0182C11.9941 44.4915 13.2961 43.2424 14.8874 43.2424H32.2472C33.8385 43.2424 35.1405 44.4915 35.1405 46.0182C35.1405 47.5449 33.8385 48.794 32.2472 48.794ZM14.8874 32.1394H43.8204C45.4118 32.1394 46.7137 30.8903 46.7137 29.3637C46.7137 27.837 45.4118 26.5879 43.8204 26.5879H14.8874C13.2961 26.5879 11.9941 27.837 11.9941 29.3637C11.9941 30.8903 13.2961 32.1394 14.8874 32.1394Z" fill="#4CBC9A"/>
<path d="M69.4256 23.6091C69.4256 35.723 60.3486 45.3775 49.3483 45.3775C38.348 45.3775 29.271 35.723 29.271 23.6091C29.271 11.4951 38.348 1.84058 49.3483 1.84058C60.3486 1.84058 69.4256 11.4951 69.4256 23.6091Z" fill="white" stroke="#4CBC9A" stroke-width="2.5"/>
<path d="M56.0542 25.7012V20.6794C56.0542 20.384 56.1911 20.0887 56.3737 19.8915L60.3883 16.3956C60.9814 15.8539 61.8937 16.3465 61.8937 17.1834V29.1971C61.8937 30.0341 61.0269 30.4772 60.3883 29.985L56.3737 26.489C56.1911 26.2922 56.0542 25.9969 56.0542 25.7012V25.7012ZM55.1416 29.7388V16.5927C55.1416 15.2141 54.138 14.1309 52.8607 14.1309H39.0837C37.8064 14.1309 36.8027 15.2141 36.8027 16.5927V29.7388C36.8027 31.1174 37.8064 32.2006 39.0837 32.2006H52.8607C54.1377 32.2006 55.1413 31.1174 55.1413 29.7388H55.1416Z" fill="#4CBC9A"/>
</svg>
