<svg width="62" height="62" viewBox="0 0 62 62" fill="none" xmlns="http://www.w3.org/2000/svg">
<path d="M25.7361 50.477C24.9549 49.6957 23.6887 49.6957 22.9074 50.477L17.6675 55.7169C16.8862 56.4969 16.8862 57.7644 17.6675 58.5443C18.4432 59.3226 19.711 59.3296 20.4962 58.5443L25.7361 53.3044C26.5174 52.5231 26.5174 51.257 25.7361 50.477ZM11.5226 36.2633C10.7426 35.4821 9.47634 35.4821 8.6951 36.2633L3.45516 41.5032C2.67392 42.2845 2.67392 43.5507 3.45516 44.332C4.23515 45.1118 5.49939 45.1152 6.28263 44.332L11.5226 39.092C12.3038 38.3109 12.3038 37.0446 11.5226 36.2633ZM20.9987 41.0009C20.2175 40.2196 18.9512 40.2209 18.17 41.0009L4.89015 54.2807C4.10891 55.0619 4.10891 56.3281 4.89015 57.1094C5.67114 57.888 6.93487 57.8909 7.71886 57.1094L20.9987 43.8296C21.7799 43.0483 21.7799 41.7821 20.9987 41.0009ZM61.8982 2.62401L42.9459 60.6231C42.4102 62.2602 40.1855 62.499 39.316 61.0068L26.5711 39.0884C26.1686 38.3972 26.2174 37.5334 26.6936 36.8909L31.2698 30.7298L25.1086 35.306C24.4662 35.7822 23.6024 35.831 22.9112 35.4285L0.992693 22.6836C-0.494289 21.8187 -0.265542 19.591 1.37644 19.0536L59.3757 0.101426C60.926 -0.404441 62.4063 1.06728 61.8982 2.62401Z" fill="#4C4FC4"/>
</svg>
