<svg width="72" height="72" viewBox="0 0 72 72" fill="none" xmlns="http://www.w3.org/2000/svg">
<path d="M29.8871 58.6184C28.9799 57.7112 27.5094 57.7112 26.6022 58.6184L20.5171 64.7035C19.6098 65.6093 19.6098 67.0812 20.5171 67.987C21.4179 68.8907 22.8902 68.8989 23.802 67.987L29.8871 61.9019C30.7944 60.9945 30.7944 59.5242 29.8871 58.6184ZM13.381 42.1123C12.4752 41.205 11.0048 41.205 10.0975 42.1123L4.01245 48.1973C3.1052 49.1046 3.1052 50.575 4.01245 51.4823C4.91824 52.3879 6.38639 52.3918 7.29596 51.4823L13.381 45.3972C14.2883 44.4901 14.2883 43.0195 13.381 42.1123ZM24.3856 47.6139C23.4783 46.7067 22.0079 46.7081 21.1006 47.6139L5.67888 63.0356C4.77163 63.9429 4.77163 65.4133 5.67888 66.3205C6.58584 67.2247 8.0534 67.2281 8.96384 66.3205L24.3856 50.8989C25.2928 49.9916 25.2928 48.5212 24.3856 47.6139ZM71.8818 3.04724L49.8727 70.401C49.2505 72.3021 46.667 72.5795 45.6573 70.8466L30.8568 45.393C30.3894 44.5903 30.446 43.5872 30.9991 42.8411L36.3133 35.6862L29.1584 41.0005C28.4123 41.5535 27.4093 41.6102 26.6065 41.1427L1.1528 26.3422C-0.574013 25.3378 -0.308371 22.7508 1.59844 22.1268L68.9525 0.117784C70.7527 -0.469674 72.4718 1.23943 71.8818 3.04724Z" fill="white"/>
</svg>
