<svg width="84" height="85" viewBox="0 0 84 85" fill="none" xmlns="http://www.w3.org/2000/svg">
<path d="M5.78752 30.5061C8.66653 34.9598 11.8405 39.2159 15.2881 43.2456H17.8665C17.5415 41.3833 17.0795 39.5476 16.4841 37.7534C14.2076 31.0977 10.2387 25.1487 4.96735 20.491L6.96857 18.281C12.6212 23.2807 16.8749 29.6657 19.3115 36.808C19.7051 37.9816 20.0287 39.185 20.3166 40.4003C20.4508 40.1558 20.5894 39.9142 20.7073 39.6547C24.064 32.1986 22.4326 20.3254 15.2986 16.2067C13.5859 15.3227 11.7117 14.7952 9.78942 14.656C7.8671 14.5168 5.93652 14.7689 4.11437 15.3969C3.28301 15.6078 2.50382 15.9871 1.82509 16.5114C1.14635 17.0357 0.582531 17.6939 0.168578 18.445C-0.623264 20.4447 1.55095 23.9551 5.78752 30.5061Z" fill="#2BC88B"/>
<path d="M40.1755 28.7493C40.0627 27.8495 39.8378 26.9673 39.506 26.1233C37.1812 20.224 30.3961 16.9358 26.331 18.1467C24.9964 18.5968 23.8447 19.4695 23.0503 20.6326C25.7968 26.6157 26.1081 33.4327 23.9182 39.6412C24.0032 39.5369 24.1046 39.4444 24.1881 39.343C27.3561 35.2463 29.3138 30.3446 29.8398 25.1927L32.8044 25.5178C32.2261 31.2287 30.0502 36.661 26.5263 41.1921C25.9582 41.9109 25.3334 42.5864 24.6951 43.25H31.5727L31.6964 43.1919C30.9143 40.1528 31.3677 36.9277 32.9572 34.222C34.5468 31.5163 37.1432 29.5502 40.1785 28.7538L40.1755 28.7493Z" fill="#2BC88B"/>
<path d="M67.4069 43.2455H82.3415C81.3917 41.8694 80.0615 40.7999 78.5135 40.1677C77.5029 39.8268 76.4479 39.6359 75.3819 39.601C74.013 39.4996 72.4606 39.3833 71.7418 37.9472C70.9962 36.4411 72.0147 35.172 72.8319 34.1505C73.6627 33.248 74.27 32.1632 74.605 30.9832C75.3417 27.7696 75.3506 22.3758 72.3443 20.6848C71.6457 20.3282 70.8824 20.1159 70.1 20.0606C69.3175 20.0052 68.532 20.108 67.7901 20.3627C65.5522 21.0347 63.6517 22.5292 62.4709 24.5456C61.3092 26.7913 61.9877 29.2817 62.6439 31.687C63.3 34.0924 63.986 36.6215 62.1786 38.3573C60.3429 40.1244 57.6617 39.4012 55.0655 38.6928C55.285 40.2134 55.1906 41.7628 54.7881 43.2455H64.3752C64.748 41.134 65.1685 39.0194 65.6562 36.9391C66.4912 33.3841 67.5083 29.826 68.6789 26.3649L71.5033 27.3192C70.364 30.6909 69.3738 34.158 68.5611 37.6221C68.1256 39.4772 67.7483 41.3621 67.4069 43.2455Z" fill="#2BC88B"/>
<path d="M51.6805 43.2456C51.9541 42.4741 52.1173 41.6678 52.1652 40.8506L49.6853 41.6768L48.7428 38.8435L51.8476 37.8085C51.3814 36.1872 50.4672 34.7303 49.2099 33.6055C47.9526 32.4806 46.4034 31.7335 44.7404 31.45V34.2982H41.7579V31.45C40.3313 31.6938 38.9849 32.2795 37.834 33.157C36.683 34.0345 35.7617 35.1777 35.1488 36.4888L37.7555 37.3582L36.813 40.1915L34.348 39.3684C34.3177 39.6657 34.3023 39.9643 34.3018 40.2631C34.2998 41.2796 34.4743 42.2888 34.8177 43.2456H51.6805ZM41.7579 37.2806H44.7404V40.2631H41.7579V37.2806Z" fill="#2BC88B"/>
<path d="M11.4158 43.2456C9.74764 41.2136 8.14159 39.1179 6.59767 36.9586C5.23473 37.4123 3.91559 37.9883 2.65636 38.6795C1.63373 39.1241 0.801645 39.9166 0.307675 40.9163C0.00350457 41.6532 -0.0773917 42.4632 0.0750438 43.2456H11.4158Z" fill="#2BC88B"/>
<path d="M0.0302734 46.2281C0.42795 56.6374 4.83973 66.4886 12.3408 73.7166C19.8418 80.9447 29.8497 84.9884 40.2666 85.0001H43.249C53.6659 84.9884 63.6737 80.9447 71.1748 73.7166C78.6759 66.4886 83.0876 56.6374 83.4853 46.2281H0.0302734ZM24.7056 77.3948C17.6514 73.9902 11.7359 68.6129 7.6758 61.9144L10.2258 60.3665C13.9877 66.5724 19.4679 71.5549 26.003 74.7106L24.7056 77.3948ZM31.3192 79.0351H28.3367V76.0527H31.3192V79.0351Z" fill="#2BC88B"/>
<path d="M64.1262 7.45609V4.47363H58.1613C54.9973 4.47363 51.9629 5.73052 49.7256 7.96779C47.4883 10.2051 46.2314 13.2395 46.2314 16.4035V19.3859H52.1964C55.3603 19.3859 58.3947 18.129 60.632 15.8917C62.8693 13.6545 64.1262 10.6201 64.1262 7.45609Z" fill="#2BC88B"/>
<path d="M35.793 10.4385C37.4402 10.4385 38.7755 9.10325 38.7755 7.45609C38.7755 5.80892 37.4402 4.47363 35.793 4.47363C34.1458 4.47363 32.8105 5.80892 32.8105 7.45609C32.8105 9.10325 34.1458 10.4385 35.793 10.4385Z" fill="#2BC88B"/>
<path d="M16.4068 5.96491C18.0539 5.96491 19.3892 4.62962 19.3892 2.98245C19.3892 1.33529 18.0539 0 16.4068 0C14.7596 0 13.4243 1.33529 13.4243 2.98245C13.4243 4.62962 14.7596 5.96491 16.4068 5.96491Z" fill="#2BC88B"/>
</svg>
