<svg width="21" height="25" viewBox="0 0 21 25" fill="none" xmlns="http://www.w3.org/2000/svg">
<path d="M10.2273 0C6.46022 0 3.40909 3.05113 3.40909 6.81818V9.09091H0V25H20.4545V9.09091H17.0455V6.81818C17.0455 3.05113 13.9886 0 10.2273 0ZM12.2159 20.9944H8.24432L8.84659 17.3807C8.24432 16.9432 7.84659 16.2329 7.84659 15.4318C7.84659 14.1136 8.90909 13.0512 10.233 13.0512C11.5398 13.0512 12.6136 14.1136 12.6136 15.4318C12.6136 16.2329 12.2159 16.9432 11.6136 17.3807L12.2159 20.9944ZM14.7727 9.09091H5.68182V6.81818C5.68182 4.31248 7.72161 2.27273 10.2273 2.27273C12.733 2.27273 14.7727 4.31248 14.7727 6.81818V9.09091Z" fill="black"/>
</svg>
