<svg width="86" height="86" viewBox="0 0 86 86" fill="none" xmlns="http://www.w3.org/2000/svg">
<g clip-path="url(#clip0_68_579)">
<path d="M20.3215 0C14.7626 0 10.2422 4.52039 10.2422 10.0793C10.2422 15.6382 14.7626 20.3266 20.3215 20.3266C25.8804 20.3266 30.4008 15.6382 30.4008 10.0793C30.4008 4.52039 25.8804 0 20.3215 0Z" fill="#3E3D4B"/>
<path d="M75.7577 10.0793C75.7577 4.52039 71.2373 0 65.6784 0C60.1195 0 55.5991 4.52039 55.5991 10.0793C55.5991 15.6382 60.1195 20.3266 65.6784 20.3266C71.2373 20.3266 75.7577 15.6382 75.7577 10.0793Z" fill="#3E3D4B"/>
<path d="M29.4258 76.448C35.2911 81.3696 36.7349 82.756 38.3048 84.0907C39.8009 85.3628 41.6686 86.0002 43.5364 86.0002C45.4214 86.0002 47.3063 85.3506 48.8025 84.0562C51.5359 81.6899 54.498 78.9596 57.1621 76.6241C55.732 76.1437 54.3851 75.3768 53.2614 74.2519C50.2694 71.2636 49.4384 66.7365 51.3298 62.7743C46.1917 60.0543 39.8177 60.0613 34.6769 62.7857C36.5591 66.7432 35.7295 71.2649 32.7363 74.2545C31.7657 75.2246 30.6361 75.9567 29.4258 76.448Z" fill="#3E3D4B"/>
<path d="M43.0001 50.5644C45.7834 50.5644 48.0397 48.3081 48.0397 45.5248C48.0397 42.7414 45.7834 40.4851 43.0001 40.4851C40.2168 40.4851 37.9604 42.7414 37.9604 45.5248C37.9604 48.3081 40.2168 50.5644 43.0001 50.5644Z" fill="#3E3D4B"/>
<path d="M42.9999 32.2957C39.5499 26.0798 33.5949 20.6982 25.1494 20.6982C13.5346 20.6982 4.77686 30.1131 4.77686 42.5964C4.77686 53.6237 12.2767 61.7091 24.1296 71.9379C25.8743 72.4624 27.8297 72.0305 29.1755 70.6884C31.2404 68.6287 31.073 65.2753 28.9712 63.3651C18.1536 53.5368 14.8563 48.9627 14.8563 43.8394H19.896C19.896 47.014 22.9925 51.0281 31.4886 58.8252C38.4969 54.7127 47.5058 54.7216 54.5116 58.8256C63.0074 51.0284 66.1043 47.014 66.1043 43.8394H71.1439C71.1439 48.9627 67.8465 53.5368 57.0291 63.3651C54.9389 65.2649 54.7501 68.6188 56.8224 70.6859C58.5216 72.3804 61.1666 72.5714 63.1576 71.2767C75.7611 59.7942 81.2234 52.6708 81.2234 42.5963C81.2234 30.1127 72.4655 20.698 60.8508 20.698C52.4023 20.6982 46.4498 26.0798 42.9999 32.2957ZM53.0792 45.5248C53.0792 51.0837 48.5588 55.6041 42.9999 55.6041C37.441 55.6041 32.9206 51.0837 32.9206 45.5248C32.9206 39.9659 37.441 35.4455 42.9999 35.4455C48.5588 35.4455 53.0792 39.9659 53.0792 45.5248Z" fill="#3E3D4B"/>
</g>
<defs>
<clipPath id="clip0_68_579">
<rect width="86" height="86" fill="white"/>
</clipPath>
</defs>
</svg>
