<svg width="21" height="25" viewBox="0 0 21 25" fill="none" xmlns="http://www.w3.org/2000/svg">
<path d="M10.271 12.0425C11.9254 12.0425 13.358 11.4492 14.5285 10.2784C15.699 9.1079 16.2924 7.67568 16.2924 6.02107C16.2924 4.36703 15.699 2.93462 14.5283 1.76371C13.3576 0.593372 11.9252 0 10.271 0C8.61635 0 7.18414 0.593372 6.01361 1.7639C4.84307 2.93443 4.24951 4.36684 4.24951 6.02107C4.24951 7.67568 4.84307 9.10809 6.0138 10.2786C7.18452 11.449 8.61693 12.0425 10.271 12.0425Z" fill="black"/>
<path d="M20.8069 19.2237C20.7732 18.7365 20.7049 18.2051 20.6044 17.644C20.5029 17.0787 20.3722 16.5442 20.2158 16.0558C20.0543 15.5509 19.8346 15.0523 19.563 14.5745C19.281 14.0786 18.9499 13.6468 18.5784 13.2915C18.1899 12.9197 17.7142 12.6209 17.1641 12.4028C16.6159 12.186 16.0084 12.0761 15.3586 12.0761C15.1034 12.0761 14.8566 12.1808 14.38 12.4912C14.0866 12.6825 13.7435 12.9037 13.3605 13.1484C13.033 13.3571 12.5894 13.5526 12.0414 13.7296C11.5068 13.9026 10.9639 13.9903 10.4282 13.9903C9.89239 13.9903 9.34975 13.9026 8.81455 13.7296C8.26715 13.5528 7.8235 13.3573 7.49639 13.1486C7.11703 12.9062 6.77371 12.6849 6.47597 12.491C5.9999 12.1806 5.7529 12.0759 5.4977 12.0759C4.84768 12.0759 4.24038 12.186 3.69241 12.403C3.14271 12.6207 2.66683 12.9195 2.27793 13.2917C1.90657 13.6472 1.57527 14.0788 1.29374 14.5745C1.02233 15.0523 0.802606 15.5507 0.640864 16.056C0.484654 16.5444 0.354001 17.0787 0.252531 17.644C0.152015 18.2044 0.083732 18.736 0.0499722 19.2242C0.0167845 19.7026 0 20.1991 0 20.7005C0 22.0055 0.414845 23.062 1.2329 23.8411C2.04085 24.61 3.10991 25 4.40995 25H16.4475C17.7476 25 18.8162 24.6102 19.6244 23.8411C20.4426 23.0626 20.8575 22.0059 20.8575 20.7003C20.8573 20.1966 20.8403 19.6997 20.8069 19.2237Z" fill="black"/>
</svg>
