<svg width="36" height="36" viewBox="0 0 36 36" fill="none" xmlns="http://www.w3.org/2000/svg">
<path d="M18 0C8.07525 0 0 8.07525 0 18C0 27.9247 8.07525 36 18 36C27.9247 36 36 27.9247 36 18C36 8.07525 27.9247 0 18 0ZM30.744 8.78175C28.8045 9.55125 26.811 10.161 24.7658 10.5615C23.8972 7.70175 22.518 4.9635 20.6235 2.48625C24.7725 3.18825 28.368 5.508 30.744 8.78175ZM23.094 22.905C19.7145 22.4415 16.2833 22.4415 12.9038 22.905C12.2108 19.6785 12.2085 16.3395 12.8993 13.1108C14.5777 13.3403 16.2743 13.5 18 13.5C19.7257 13.5 21.42 13.3403 23.0985 13.1108C23.7892 16.3395 23.787 19.6785 23.094 22.905ZM22.5112 10.9102C19.5165 11.2972 16.4813 11.2972 13.4865 10.9102C14.409 8.01675 15.9165 5.274 18 2.844C20.0835 5.274 21.5888 8.01675 22.5112 10.9102ZM15.372 2.48625C13.4775 4.9635 12.1005 7.70175 11.232 10.5615C9.189 10.161 7.1955 9.55125 5.256 8.78175C7.62975 5.508 11.2252 3.18825 15.372 2.48625ZM2.25 18C2.25 15.3765 2.90475 12.906 4.04325 10.728C6.19425 11.6123 8.4015 12.3075 10.6718 12.7642C9.9495 16.2225 9.9495 19.7933 10.674 23.2537C8.406 23.706 6.18975 24.3967 4.04325 25.2787C2.90475 23.0962 2.25 20.6257 2.25 18ZM5.256 27.2183C7.1955 26.4487 9.189 25.839 11.232 25.4385C12.1005 28.2983 13.4798 31.0365 15.3743 33.5138C11.2253 32.8118 7.62975 30.492 5.256 27.2183ZM13.4887 25.0898C16.4813 24.7027 19.5165 24.7027 22.5112 25.0898C21.5888 27.9832 20.0812 30.726 18 33.156C15.9165 30.726 14.4113 27.9832 13.4887 25.0898ZM20.6235 33.5138C22.518 31.0365 23.8972 28.2983 24.7658 25.4385C26.8088 25.839 28.8045 26.451 30.744 27.2183C28.368 30.492 24.7725 32.8118 20.6235 33.5138ZM25.3237 23.2493C26.0483 19.791 26.0505 16.2202 25.326 12.762C27.5962 12.3053 29.8057 11.6123 31.9568 10.7257C33.0952 12.906 33.75 15.3765 33.75 18C33.75 20.6257 33.0952 23.0962 31.9568 25.2743C29.8102 24.3945 27.594 23.7038 25.3237 23.2493Z" fill="black"/>
</svg>
