<svg width="79" height="70" viewBox="0 0 79 70" fill="none" xmlns="http://www.w3.org/2000/svg">
<path fill-rule="evenodd" clip-rule="evenodd" d="M31.9574 0.631653C31.0804 0.631653 30.2463 1.37409 30.005 2.21397L28.4169 6.74052C28.1745 7.5804 28.7371 8.32284 29.6129 8.32284H49.4917C50.3664 8.32284 50.929 7.5804 50.6866 6.74052L49.0984 2.21281C48.856 1.37293 48.0219 0.630493 47.1461 0.630493L31.9574 0.631653Z" fill="#824DB7"/>
<path fill-rule="evenodd" clip-rule="evenodd" d="M53.1334 42.4228H25.9683C24.814 42.4228 24.5542 43.7569 25.0866 45.0445C26.2038 47.7707 29.1712 50.3437 31.9982 49.6012H47.1045C50.029 49.6012 52.899 47.7695 54.015 45.0445C54.5475 43.7569 54.2749 42.591 53.1334 42.4228ZM8.59871 42.3149C8.11033 43.8241 7.54074 46.8101 10.224 47.7892C12.4234 48.5908 17.0579 49.1709 19.523 49.5479C21.8976 49.904 22.4881 48.5027 21.6679 46.4111C20.1274 42.5376 16.653 41.7163 13.3909 41.1548C10.1335 40.5922 8.96645 41.1838 8.59871 42.3149ZM65.713 41.1548C62.4556 41.7163 58.9754 42.5365 57.4418 46.4111C56.6135 48.5027 57.2063 49.9028 59.581 49.5479C62.053 49.172 66.6805 48.592 68.88 47.7892C71.562 46.8101 71.0006 43.8241 70.5041 42.3149C70.1352 41.1838 68.9751 40.5922 65.713 41.1548ZM39.5526 15.0466C34.4587 15.0535 28.9543 15.2275 24.2955 15.5489C22.5322 15.6695 20.9127 16.6231 19.8246 18.3817C17.4929 22.1635 15.4129 25.7226 14.1032 29.6807C14.1032 29.6807 28.7118 31.1354 39.5526 31.1354C50.3968 31.1354 65.0066 29.6807 65.0066 29.6807C63.6899 25.7226 61.6169 22.1635 59.2851 18.3817C58.197 16.6231 56.5729 15.6695 54.8073 15.5489C50.1555 15.2275 44.6452 15.0535 39.5526 15.0466ZM39.5526 11.4933C45.4665 11.4933 51.5093 11.4631 57.2864 12.2671C59.9684 12.6418 61.6899 14.2136 62.9289 16.0373C65.7502 20.1879 67.5691 24.573 69.1572 29.009H76.2382C78.215 29.009 79.3936 30.5426 78.8797 32.4463C78.3171 34.5553 77.6767 35.5877 74.5828 36.307L73.4042 36.5796C74.323 38.3371 75.0005 40.199 75.0005 41.8602V55.4897C75.0005 57.768 73.4228 59.6961 71.5876 60.4153V66.7956C71.5876 68.0415 70.5841 69.0438 69.3394 69.0438H62.9637C61.7201 69.0438 60.7155 68.0415 60.7155 66.7956V60.7297H18.3919V66.7956C18.3919 68.0415 17.3896 69.0438 16.1437 69.0438H9.76921C8.52446 69.0438 7.52218 68.0415 7.52218 66.7956V60.4153C5.68464 59.6961 4.10232 57.775 4.10232 55.4897V41.8613C4.10232 40.2001 4.77748 38.3371 5.70204 36.5807L4.51762 36.3081C1.43071 35.5889 0.790356 34.5564 0.223087 32.4474C-0.282698 30.5438 0.89592 29.0102 2.86454 29.0102H9.95134C11.5395 24.5753 13.3526 20.1891 16.1739 16.0384C17.4128 14.2136 19.1413 12.6418 21.8176 12.2682C27.6005 11.4632 33.6363 11.4933 39.5526 11.4933Z" fill="#824DB7"/>
</svg>
