<svg width="55" height="41" viewBox="0 0 55 41" fill="none" xmlns="http://www.w3.org/2000/svg">
<path d="M50.6165 0.5H4.7165C2.47925 0.5 0.666504 2.31274 0.666504 4.55C0.666504 6.78726 2.47925 8.6 4.7165 8.6H50.6165C52.8538 8.6 54.6665 6.78726 54.6665 4.55C54.6665 2.31274 52.8538 0.5 50.6165 0.5Z" fill="black"/>
<path d="M42.9661 16.7H4.7165C2.47925 16.7 0.666504 18.5127 0.666504 20.75C0.666504 22.9872 2.47925 24.8 4.7165 24.8H42.9661C45.2033 24.8 47.0161 22.9872 47.0161 20.75C47.0161 18.5127 45.2033 16.7 42.9661 16.7Z" fill="black"/>
<path d="M27.6665 32.9H4.7165C2.47925 32.9 0.666504 34.7128 0.666504 36.95C0.666504 39.1873 2.47925 41 4.7165 41H27.6665C29.9038 41 31.7165 39.1873 31.7165 36.95C31.7165 34.7128 29.9038 32.9 27.6665 32.9Z" fill="black"/>
</svg>
