<svg width="88" height="74" viewBox="0 0 88 74" fill="none" xmlns="http://www.w3.org/2000/svg">
<g clip-path="url(#clip0_58_309)">
<path d="M43.9989 74C43.9989 74 51.9484 69.3335 61.0714 62.1589H26.9287C36.0494 69.3335 44.0012 74 44.0012 74H43.9989Z" fill="#7416A8"/>
<path d="M26.9287 62.159H61.0737C65.702 58.5178 70.6324 54.2337 74.9796 49.5836H13.0205C17.3677 54.2337 22.2981 58.5178 26.9263 62.159H26.9287Z" fill="#2C5EFB"/>
<path d="M13.0205 49.5836H74.9772C78.7014 45.5998 81.9993 41.3486 84.3087 37.0082H3.69141C6.00085 41.3486 9.29637 45.5998 13.0229 49.5836H13.0205Z" fill="#2FAD4C"/>
<path d="M0.616251 28.6137C1.14091 31.4174 2.21365 34.2327 3.6916 37.0082H84.3089C85.7868 34.2304 86.8596 31.4174 87.3842 28.6137C87.6512 27.1872 87.8293 25.7913 87.923 24.4329H0.0751953C0.168885 25.7913 0.349236 27.1872 0.613909 28.6137H0.616251Z" fill="#FCE22B"/>
<path d="M0.0751461 24.4328H87.9229C88.2485 19.7264 87.5317 15.4635 85.7212 11.8574H2.27919C0.468641 15.4635 -0.248082 19.7264 0.0751461 24.4328Z" fill="#F87316"/>
<path d="M67.2992 0.28618C50.749 -2.12801 44.001 11.5454 44.001 11.5454C44.001 11.5454 37.253 -2.12801 20.7028 0.28618C11.362 1.64695 5.30029 5.83718 2.27881 11.8574H85.7208C82.6993 5.83952 76.6376 1.64929 67.2992 0.28618Z" fill="#F7022D"/>
</g>
<defs>
<clipPath id="clip0_58_309">
<rect width="88" height="74" fill="white"/>
</clipPath>
</defs>
</svg>
