<svg width="86" height="86" viewBox="0 0 86 86" fill="none" xmlns="http://www.w3.org/2000/svg">
<path fill-rule="evenodd" clip-rule="evenodd" d="M74.5842 56.311L58.3593 61.061C58.5838 63.6711 57.2775 66.144 55.0019 67.4576C53.5239 68.3108 51.7281 68.6115 49.9612 68.1594L34.3165 63.9682C33.6482 63.7896 33.2511 63.103 33.4298 62.4347C33.6084 61.7664 34.295 61.3694 34.9633 61.548L50.534 65.7201C52.7925 66.3253 55.1292 64.9783 55.7348 62.7196C56.2678 60.4098 55.0595 58.1413 52.7334 57.5182L41.0171 54.379C40.8767 54.3416 40.7408 54.2773 40.6154 54.188C36.8708 51.5328 34.0967 50.5705 31.5565 50.6359C28.9995 50.7018 26.5175 51.8189 23.4755 53.3064C20.6551 54.6854 17.9105 55.9974 15.1951 57.2839L22.4528 74.7103L25.2445 73.3529C27.2925 72.3573 29.3929 72.1812 31.5792 72.8158L44.501 76.5676C47.9125 77.558 52.3629 75.8263 55.8933 74.4525L80.9329 64.8017C83.3783 63.8594 85.3829 60.6203 84.5797 58.0166C83.4138 54.2352 77.2491 55.5309 74.5842 56.311ZM20.4041 83.218L14.1917 85.7977C12.8438 86.3574 11.2882 85.7156 10.7272 84.3683C7.22053 75.9487 3.71389 67.5288 0.207247 59.109C-0.359843 57.7474 0.275872 56.2067 1.63814 55.6411L7.85051 53.0616C9.19845 52.5019 10.754 53.1437 11.315 54.491C14.8215 62.9108 18.3283 71.3305 21.8348 79.7504C22.4019 81.1117 21.7663 82.6524 20.4041 83.218ZM66.2235 6.25005C66.2235 9.70241 69.0222 12.501 72.4748 12.501C75.9275 12.501 78.7262 9.70241 78.7262 6.25005C78.7262 2.79858 75.9275 0 72.4748 0C69.0222 0 66.2235 2.79858 66.2235 6.25005ZM49.2895 10.9311C49.2895 14.3837 52.0882 17.1821 55.5407 17.1821C58.9933 17.1821 61.792 14.3837 61.792 10.9311C61.792 7.47967 58.9933 4.68108 55.5407 4.68108C52.0882 4.68108 49.2895 7.47967 49.2895 10.9311ZM69.066 34.3088C69.066 41.7781 42.015 41.7781 42.015 34.3088C42.015 26.8397 48.0713 20.7844 55.5409 20.7844C63.0105 20.7844 69.066 26.8397 69.066 34.3088ZM32.3554 6.25005C32.3554 9.70241 35.1542 12.501 38.6067 12.501C42.0594 12.501 44.8581 9.70241 44.8581 6.25005C44.8581 2.79858 42.0594 0 38.6067 0C35.1542 0 32.3554 2.79858 32.3554 6.25005ZM86 29.6277C86 22.1584 79.9446 16.1033 72.4749 16.1033C68.7391 16.1033 65.357 17.618 62.9091 20.0663C68.0565 22.7348 71.5744 28.1114 71.5744 34.3088C71.5744 34.6225 71.5495 34.9246 71.5027 35.2155C78.5734 35.4031 86 33.5416 86 29.6277ZM39.5782 35.2155C39.5312 34.9248 39.5065 34.6227 39.5065 34.3088C39.5065 28.1114 43.0248 22.735 48.1723 20.0665C45.7246 17.618 42.3427 16.1033 38.6069 16.1033C31.1372 16.1033 25.0809 22.1586 25.0809 29.6277C25.0807 33.5416 32.5074 35.4031 39.5782 35.2155Z" fill="white"/>
</svg>
