<svg width="76" height="76" viewBox="0 0 76 76" fill="none" xmlns="http://www.w3.org/2000/svg">
<path d="M44.9074 0H8.66634C3.87622 0 0 3.90412 0 8.72873V57.927C0 62.7516 3.87622 66.6557 8.66634 66.6557H34.3187C31.5455 62.8468 29.9383 58.2127 29.9383 53.1659C29.9383 40.4696 40.1803 30.1538 52.7859 30.1538C53.038 30.1538 53.3217 30.1538 53.5738 30.1855V8.72873C53.5738 3.90412 49.6975 0 44.9074 0ZM12.6056 12.6963H25.2112C26.9445 12.6963 28.3626 14.1247 28.3626 15.8704C28.3626 17.6162 26.9445 19.0445 25.2112 19.0445H12.6056C10.8723 19.0445 9.4542 17.6162 9.4542 15.8704C9.4542 14.1247 10.8723 12.6963 12.6056 12.6963ZM28.3626 44.4372H12.6056C10.8723 44.4372 9.4542 43.0088 9.4542 41.2631C9.4542 39.5173 10.8723 38.089 12.6056 38.089H28.3626C30.0959 38.089 31.514 39.5173 31.514 41.2631C31.514 43.0088 30.0959 44.4372 28.3626 44.4372ZM40.9682 31.7408H12.6056C10.8723 31.7408 9.4542 30.3125 9.4542 28.5667C9.4542 26.821 10.8723 25.3927 12.6056 25.3927H40.9682C42.7014 25.3927 44.1196 26.821 44.1196 28.5667C44.1196 30.3125 42.7014 31.7408 40.9682 31.7408Z" fill="white"/>
<path d="M52.951 69.7704C43.6762 69.7704 36.1313 62.2256 36.1313 52.9508C36.1313 43.6759 43.6762 36.1311 52.951 36.1311C62.2259 36.1311 69.7707 43.6759 69.7707 52.9508C69.7707 62.2256 62.2259 69.7704 52.951 69.7704ZM52.951 42.5386C47.2099 42.5386 42.5388 47.2097 42.5388 52.9508C42.5388 58.6919 47.2099 63.363 52.951 63.363C58.6921 63.363 63.3632 58.6919 63.3632 52.9508C63.3632 47.2097 58.6921 42.5386 52.951 42.5386Z" fill="white"/>
<path d="M72.7956 76C71.9755 76 71.1554 75.686 70.5308 75.0613L60.1196 64.6496C58.867 63.397 58.867 61.3724 60.1196 60.1198C61.3721 58.8671 63.3967 58.8671 64.6493 60.1198L75.0604 70.5314C76.313 71.784 76.313 73.8087 75.0604 75.0613C74.4358 75.686 73.6157 76 72.7956 76Z" fill="white"/>
</svg>
