<svg width="30" height="29" viewBox="0 0 30 29" fill="none" xmlns="http://www.w3.org/2000/svg">
    <path d="M35.15 0H2.85C1.27563 0 0 1.27563 0 2.85C0 4.42436 1.27563 5.7 2.85 5.7H35.15C36.7244 5.7 38 4.42436 38 2.85C38 1.27563 36.7244 0 35.15 0Z" fill="white"/>
    <path d="M29.7663 11.3999H2.85C1.27563 11.3999 0 12.6755 0 14.2499C0 15.8243 1.27563 17.0999 2.85 17.0999H29.7663C31.3407 17.0999 32.6163 15.8243 32.6163 14.2499C32.6163 12.6755 31.3407 11.3999 29.7663 11.3999Z" fill="white"/>
    <path d="M19 22.7998H2.85C1.27563 22.7998 0 24.0754 0 25.6498C0 27.2242 1.27563 28.4998 2.85 28.4998H19C20.5744 28.4998 21.85 27.2242 21.85 25.6498C21.85 24.0754 20.5744 22.7998 19 22.7998Z" fill="white"/>
</svg>
